<svg width="18" height="18" viewBox="0 0 18 18" fill="none" xmlns="http://www.w3.org/2000/svg">
<path d="M5.5 7.5H4.5C4.21667 7.5 3.97917 7.40417 3.7875 7.2125C3.59583 7.02083 3.5 6.78333 3.5 6.5C3.5 6.21667 3.59583 5.97917 3.7875 5.7875C3.97917 5.59583 4.21667 5.5 4.5 5.5H5.5V4.5C5.5 4.21667 5.59583 3.97917 5.7875 3.7875C5.97917 3.59583 6.21667 3.5 6.5 3.5C6.78333 3.5 7.02083 3.59583 7.2125 3.7875C7.40417 3.97917 7.5 4.21667 7.5 4.5V5.5H8.5C8.78333 5.5 9.02083 5.59583 9.2125 5.7875C9.40417 5.97917 9.5 6.21667 9.5 6.5C9.5 6.78333 9.40417 7.02083 9.2125 7.2125C9.02083 7.40417 8.78333 7.5 8.5 7.5H7.5V8.5C7.5 8.78333 7.40417 9.02083 7.2125 9.2125C7.02083 9.40417 6.78333 9.5 6.5 9.5C6.21667 9.5 5.97917 9.40417 5.7875 9.2125C5.59583 9.02083 5.5 8.78333 5.5 8.5V7.5ZM6.5 13C4.68333 13 3.14583 12.3708 1.8875 11.1125C0.629167 9.85417 0 8.31667 0 6.5C0 4.68333 0.629167 3.14583 1.8875 1.8875C3.14583 0.629167 4.68333 0 6.5 0C8.31667 0 9.85417 0.629167 11.1125 1.8875C12.3708 3.14583 13 4.68333 13 6.5C13 7.23333 12.8833 7.925 12.65 8.575C12.4167 9.225 12.1 9.8 11.7 10.3L17.3 15.9C17.4833 16.0833 17.575 16.3167 17.575 16.6C17.575 16.8833 17.4833 17.1167 17.3 17.3C17.1167 17.4833 16.8833 17.575 16.6 17.575C16.3167 17.575 16.0833 17.4833 15.9 17.3L10.3 11.7C9.8 12.1 9.225 12.4167 8.575 12.65C7.925 12.8833 7.23333 13 6.5 13ZM6.5 11C7.75 11 8.8125 10.5625 9.6875 9.6875C10.5625 8.8125 11 7.75 11 6.5C11 5.25 10.5625 4.1875 9.6875 3.3125C8.8125 2.4375 7.75 2 6.5 2C5.25 2 4.1875 2.4375 3.3125 3.3125C2.4375 4.1875 2 5.25 2 6.5C2 7.75 2.4375 8.8125 3.3125 9.6875C4.1875 10.5625 5.25 11 6.5 11Z" fill="white"/>
</svg>
